<?xml version="1.0" encoding="UTF-8"?>
<svg id="Layer_2" data-name="Layer 2" xmlns="http://www.w3.org/2000/svg" viewBox="0 0 1978.49 366.99">
  <defs>
    <style>
      .cls-1 {
        fill: #231f20;
      }

      .cls-2 {
        fill: #f36b32;
      }
    </style>
  </defs>
  <g id="Layer_1-2" data-name="Layer 1">
    <g>
      <path class="cls-1" d="M0,360.77V0h62.72v360.77H0Z"/>
      <path class="cls-1" d="M246.21,366.99c-25.58,0-46.83-4.58-63.76-13.74-16.94-9.15-29.55-22.11-37.85-38.87-8.29-16.76-12.43-36.19-12.43-58.31V99.52h62.71v156.54c0,17.62,4.32,31.97,12.96,43.02,8.63,11.07,21.59,16.59,38.87,16.59s31.1-5.44,39.4-16.33c8.29-10.89,12.44-25.31,12.44-43.28V99.52h62.71v156.54c0,22.12-4.32,41.47-12.96,58.05-8.63,16.59-21.51,29.54-38.61,38.88-17.11,9.33-38.27,13.99-63.49,13.99Z"/>
      <path class="cls-1" d="M491.9,155.5c5.18-19.35,14.25-34.38,27.21-45.09,12.96-10.71,28.59-16.07,46.91-16.07h6.22c2.08,0,4.49.35,7.26,1.03v57.54c-2.77-.69-5.18-1.04-7.26-1.04h-5.7c-22.47,0-40.17,7.18-53.14,21.51-12.96,14.34-19.43,35.16-19.43,62.46v124.92h-62.72V99.52h59.61v55.98h1.03Z"/>
      <path class="cls-1" d="M743.81,366.47c-30.4,0-56.59-5.96-78.53-17.88-21.95-11.92-38.79-28.07-50.54-48.46-11.75-20.39-17.62-43.19-17.62-68.42s5.7-49.76,17.1-70.49c11.41-20.74,27.39-37.23,47.95-49.5,20.55-12.26,44.31-18.4,71.27-18.4,29.37,0,53.82,6.83,73.35,20.48,19.51,13.65,33.6,31.97,42.24,54.95,8.63,22.98,11.22,48.29,7.77,75.93h-222.37v-44.58h169.5l-6.74,3.63c0-17.96-6.05-32.83-18.15-44.58-12.1-11.74-27.82-17.62-47.17-17.62-15.21,0-28.08,3.46-38.62,10.36-10.54,6.92-18.66,15.99-24.35,27.21-5.71,11.23-8.55,23.42-8.55,36.54v21.25c0,14.86,3.53,28.34,10.62,40.43,7.08,12.1,17.36,21.69,30.84,28.77,13.48,7.09,29.89,10.62,49.25,10.62,13.82,0,27.22-1.89,40.17-5.7,12.96-3.8,24.96-9.15,36.03-16.07v51.83c-11.07,6.22-23.76,11.06-38.1,14.51s-29.46,5.19-45.36,5.19Z"/>
      <path class="cls-2" d="M1021.13,366.99c-23.5,0-44.57-5.7-63.24-17.11-18.66-11.4-33.35-27.29-44.06-47.69-10.72-20.39-16.07-44.23-16.07-71.53s5.44-50.71,16.32-71.27c10.89-20.56,25.66-36.71,44.32-48.46,18.66-11.74,39.73-17.62,63.24-17.62,19.69,0,37.23,3.98,52.62,11.92,15.37,7.95,27.55,19.87,36.54,35.77h1.03V0h62.71v360.77h-60.12v-50.8h-1.03c-7.96,18.66-20.05,32.83-36.28,42.5-16.24,9.67-34.9,14.52-55.98,14.52ZM1036.68,315.15c22.81,0,41.21-7.95,55.2-23.84,14-15.89,21-36.28,21-61.16s-7-45.78-21-61.68c-13.99-15.89-32.39-23.84-55.2-23.84s-40.61,7.7-54.43,23.07c-13.83,15.38-20.73,36.2-20.73,62.46s6.9,45.7,20.73,61.42c13.81,15.73,31.96,23.58,54.43,23.58Z"/>
      <path class="cls-2" d="M1388.11,325c-6.58,13.48-16.16,23.84-28.77,31.1-12.63,7.26-27.74,10.89-45.36,10.89-24.19,0-43.98-6.65-59.35-19.96-15.38-13.3-23.06-30.84-23.06-52.61s6.9-38.01,20.73-49.76c13.81-11.74,30.92-20.04,51.32-24.88l93.82-24.36v42.5l-71.01,19.7c-9.67,2.42-17.54,6.14-23.58,11.14-6.05,5.01-9.06,12.01-9.06,20.99s3.79,16.93,11.4,22.81c7.6,5.88,17.27,8.81,29.03,8.81,14.85,0,27.03-4.14,36.54-12.44,9.5-8.29,14.25-19.18,14.25-32.66v-79.83c0-15.89-5.79-28.33-17.37-37.32-11.58-8.98-26.69-13.48-45.35-13.48-13.48,0-26.18,2.07-38.1,6.22-11.92,4.15-23.07,9.85-33.44,17.11v-53.91c11.41-7.26,24.19-12.7,38.36-16.33,14.17-3.63,29.2-5.44,45.1-5.44,35.25,0,62.97,9.25,83.19,27.73,20.22,18.49,30.32,43.63,30.32,75.42v164.32h-58.57v-35.77h-1.03Z"/>
      <path class="cls-2" d="M1565.38,244.66c-8.65-3.45-17.2-7.95-25.66-13.48-8.47-5.52-15.63-12.87-21.51-22.03-5.89-9.15-8.82-20.82-8.82-34.99,0-15.2,4.15-28.85,12.44-40.95,8.29-12.09,20.12-21.68,35.5-28.77,15.37-7.08,33.77-10.63,55.21-10.63,11.74,0,23.14,1.22,34.21,3.63,11.05,2.42,21.26,6.05,30.58,10.89v51.83c-9.67-5.87-19.78-10.11-30.32-12.7s-20.99-3.89-31.35-3.89c-14.18,0-25.06,2.59-32.67,7.77-7.6,5.19-11.4,12.1-11.4,20.74,0,6.22,2.33,11.23,7,15.03,4.66,3.81,10.11,7.26,16.32,10.37l32.14,12.96c10.36,4.49,19.77,9.77,28.24,15.81,8.47,6.05,15.29,13.57,20.48,22.55,5.18,8.99,7.77,20.39,7.77,34.21,0,24.19-8.81,44.15-26.44,59.87-17.62,15.73-42.68,23.59-75.15,23.59-13.48,0-26.36-1.48-38.62-4.41-12.27-2.93-23.42-7.17-33.44-12.7v-55.46c10.7,7.6,21.85,13.31,33.44,17.11,11.57,3.81,23.23,5.7,34.98,5.7,13.48,0,24.11-2.76,31.88-8.29,7.77-5.53,11.66-12.78,11.66-21.77,0-7.6-2.33-13.48-7-17.62-4.66-4.15-10.45-7.78-17.36-10.89l-32.14-13.48Z"/>
      <path class="cls-2" d="M1747.31,360.77V0h62.71v147.73h1.03c5.87-16.59,15.55-29.81,29.03-39.66,13.48-9.85,29.88-14.77,49.24-14.77,16.24,0,31.1,3.63,44.58,10.89,13.48,7.26,24.27,18.32,32.4,33.17,8.11,14.86,12.18,33.69,12.18,56.5v166.91h-62.71v-155.5c0-19-4.59-33.69-13.74-44.06-9.15-10.37-20.99-15.55-35.5-15.55-17.62,0-31.45,6.4-41.47,19.18-10.03,12.79-15.03,29.89-15.03,51.32v144.62h-62.71Z"/>
    </g>
  </g>
</svg>